<svg xmlns="http://www.w3.org/2000/svg" viewBox="0 0 100 100">
  <defs>
    <linearGradient id="gradient" x1="0%" y1="0%" x2="100%" y2="100%">
      <stop offset="0%" stop-color="#3ef2f2" />
      <stop offset="50%" stop-color="#7209b7" />
      <stop offset="100%" stop-color="#f72585" />
    </linearGradient>
  </defs>
  <g fill="url(#gradient)">
    <!-- Brain outline -->
    <path d="M85,50c0,19.33-15.67,35-35,35S15,69.33,15,50S30.67,15,50,15S85,30.67,85,50z M50,20
      c-16.57,0-30,13.43-30,30s13.43,30,30,30s30-13.43,30-30S66.57,20,50,20z" />
    
    <!-- Brain swirls -->
    <path d="M65,30c-3.5,0-6.5,2-8,5c-1.5-3-4.5-5-8-5c-5,0-9,4-9,9c0,2.5,1,4.5,2.5,6c-1.5,1.5-2.5,3.5-2.5,6
      c0,5,4,9,9,9c3.5,0,6.5-2,8-5c1.5,3,4.5,5,8,5c5,0,9-4,9-9c0-2.5-1-4.5-2.5-6c1.5-1.5,2.5-3.5,2.5-6
      C74,34,70,30,65,30z" />
    
    <!-- Book icon -->
    <path d="M70,75H40c-2.76,0-5-2.24-5-5V60c0-2.76,2.24-5,5-5h30c2.76,0,5,2.24,5,5v10
      C75,72.76,72.76,75,70,75z M40,60v10h30V60H40z M45,65h20v-2H45V65z M45,70h15v-2H45V70z" />
  </g>
</svg>
